REM MD5 1c470701db9955e606ca345d3140cc2e
FILE "Akuji the Heartless (USA).bin" BINARY
  TRACK 01 MODE2/2352
    INDEX 01 00:00:00
  TRACK 02 AUDIO
    INDEX 00 24:02:74
    INDEX 01 24:04:74
  TRACK 03 AUDIO
    INDEX 00 26:18:59
    INDEX 01 26:20:59
REM LEADOUT 29:28:24
